<svg width="520" height="367" viewBox="0 0 520 367" fill="none" xmlns="http://www.w3.org/2000/svg">
<g clip-path="url(#clip0_319_1188)">
<path d="M350.943 151.806C350.536 150.538 351.878 149.393 353.061 148.662C355.013 147.442 357.437 146.787 358.95 145.113C364.228 139.261 363.498 130.397 363.078 122.615C358.726 122.386 354.089 121.495 350.206 123.259C347.193 124.64 345.365 127.689 343.47 130.368C342.339 131.963 341.322 133.697 339.821 134.981C339.503 135.26 339.103 135.535 338.675 135.469C338.176 135.386 337.871 134.898 337.717 134.431C337.247 132.963 337.566 131.358 338.045 129.888C339.23 126.276 342.133 123.351 343.337 119.692C343.354 119.622 343.359 119.542 343.363 119.461C343.484 117.016 343.258 114.532 342.485 112.199C340.732 106.852 336.344 102.762 331.948 99.1071C328.107 95.9185 324.041 92.7723 321.21 88.7077C319.378 92.9123 316.158 96.3911 313.328 100.03C310.725 103.376 308.416 106.947 306.421 110.72C305.194 113.055 304.079 115.506 303.642 118.127C303.494 119.055 303.192 120.064 303.52 120.95C304.975 124.825 308.507 127.48 310.29 131.189C310.596 131.826 310.886 132.532 310.693 133.212C310.448 134.079 309.437 134.555 308.547 134.437C307.657 134.32 306.89 133.78 306.177 133.202C303.32 130.82 301.929 127.019 299.18 124.434C295.051 120.561 288.908 119.835 283.453 118.615C282.859 126.176 281.166 133.969 282.886 141.581C283.833 145.809 285.889 149.769 288.669 152.969C291.483 156.178 294.963 158.621 298.871 159.929C297.776 162.081 295.606 163.286 293.622 164.543C291.012 166.22 288.65 168.253 286.46 170.557C289.871 172.205 293.012 174.826 296.248 176.958C300.296 179.626 305.252 181.564 309.611 179.884C311.802 179.054 313.604 177.413 315.327 175.789C317.493 173.739 319.645 171.656 321.703 169.535C322.699 168.5 323.752 167.449 324.867 166.472C327.485 167.538 329.988 169.116 332.501 170.43C336.227 172.406 340.811 173.736 344.674 172.019C346.117 171.38 347.334 170.383 348.514 169.355C354.077 164.542 359.116 159.1 364.978 154.833C361.241 154.448 357.509 153.981 353.798 153.365C352.65 153.178 351.293 152.815 350.951 151.77L350.943 151.806Z" fill="#86081D"/>
<path d="M323.21 112.549L323.161 112.783C323.161 112.783 323.213 112.721 323.21 112.549Z" fill="#FFBA06"/>
<path d="M326.094 170.892C326.094 170.892 326.119 170.913 326.111 170.948C326.096 170.915 326.094 170.892 326.094 170.892Z" fill="#FFBA06"/>
<path d="M321.401 121.53L321.412 121.518L321.395 121.462L321.401 121.53Z" fill="#FFBA06"/>
<path d="M321.674 109.722C321.553 112.819 321.314 113.628 321.386 116.845C321.346 118.369 321.396 120.011 321.422 121.506C321.608 122.21 321.409 123.473 321.562 124.317L321.453 124.646C321.501 124.939 321.541 125.268 321.475 125.57L321.451 125.55C321.523 125.989 321.486 126.484 321.526 126.686L321.501 126.665L321.513 127.202L321.471 127.102C321.558 127.849 321.569 128.637 321.537 129.326L321.669 129.269C321.532 130.732 321.796 131.269 321.647 132.597L321.623 132.576C321.984 134.248 321.429 135.233 321.772 136.952C321.719 136.74 321.699 137.038 321.687 137.028C321.733 137.824 321.782 138.666 322.024 138.679C322.039 139.261 321.962 139.153 321.854 139.231C321.968 139.221 322.023 139.731 322.039 140.187L321.987 139.974L322.053 141.271L322.26 141.025C322.216 141.703 322.002 141.207 322.069 141.853L322.24 141.85C322.231 142.811 321.982 143.358 321.891 144.292C321.929 146.197 322.079 148.196 322.235 150.137C322.403 152.089 322.535 154.009 322.496 155.807L322.361 155.967C322.197 156.061 322.732 156.952 322.572 157.092L322.688 157.505C322.664 157.633 322.651 157.874 322.588 157.673C322.621 158.059 322.644 158.057 322.725 158.336L322.647 158.754C322.687 160.282 323.049 161.554 323.208 163.141C323.206 165.096 324.004 168.65 324.613 170.678C325.054 172.08 325.305 173.658 325.668 175.227C325.838 176.001 326.022 176.808 326.246 177.543C326.427 178.054 326.651 178.537 326.942 178.992C326.948 179.06 327.075 179.209 327.085 179.197L327.919 180.908C327.919 180.908 329.021 182.95 329.999 184.089C331 185.225 331.564 185.531 330.397 182.34L330.446 182.381C330.011 181.447 329.723 180.889 329.196 180.34C329.386 180.164 328.834 179.594 328.802 179.357L328.827 179.378C328.372 178.868 328.449 178.176 328.051 177.673C328.076 177.694 328.154 177.676 328.211 177.808C328.113 177.599 327.995 177.415 327.915 177.159C327.822 176.87 327.78 176.645 327.833 176.606C327.322 175.187 326.814 173.139 326.383 172.251L326.445 172.302C326.163 171.813 326.248 171.611 326.038 171.035C326.059 171.01 326.065 170.952 326.065 170.952C325.777 170.394 325.665 169.227 325.511 168.76L325.597 168.707L325.347 167.528L325.409 167.98C325.115 167.88 325.409 167.054 325.097 166.224C325.004 165.409 324.288 164.659 324.317 163.799C324.135 163.415 324.573 164.12 324.386 163.542C324.52 163.507 324.513 163.817 324.6 163.638C324.458 163.056 324.607 162.654 324.43 161.938L324.53 161.895C324.21 160.974 324.476 160.082 324.229 159.475C324.042 158.497 324.49 158.789 324.186 157.775L324.299 157.366C324.284 156.932 324.09 157.064 324.127 156.569C324.22 156.584 324.142 155.95 324.269 156.225C324.322 155.112 323.906 154.005 324.076 152.527C323.877 152.213 323.94 151.487 323.795 151.26C323.871 151.219 323.725 149.791 323.944 150.607C323.962 150.685 323.972 150.799 323.937 150.79L324.048 150.883C324.205 150.047 323.861 149.379 323.859 148.557C323.835 148.81 323.85 149.117 323.775 148.907L323.766 148.142L323.86 148.305L323.876 147.161L323.751 147.309C323.807 146.766 323.983 146.557 323.805 145.944C323.701 145.667 323.668 146.481 323.617 145.891C323.668 145.155 323.731 144.03 323.74 143.069C323.622 143.159 323.623 142.907 323.589 142.648L323.701 142.615C323.534 141.612 323.931 142.241 323.787 141.236L323.874 141.308L323.635 141.066C323.398 140.172 323.856 140.578 323.531 139.589C323.554 139.987 323.285 139.782 323.334 139.298L323.458 139.401C323.413 139.154 323.37 139.054 323.39 138.881C323.449 139.036 323.546 138.971 323.511 138.562L323.648 138.825L323.435 138.077C323.522 137.498 323.374 136.574 323.525 136.343C323.525 136.343 323.578 135.104 323.417 134.821C323.519 135.075 323.551 134.387 323.669 134.571C323.551 134.261 323.434 133.299 323.561 132.923L323.58 133.001C323.675 131.587 323.372 130.596 323.537 129.324C323.405 129.381 323.484 128.712 323.316 128.886C323.157 127.574 323.636 126.504 323.137 126.021C323.109 125.429 323.248 125.314 323.278 125.003L323.302 125.15C323.274 124.032 323.257 123.702 323.278 122.877C323.23 122.458 323.008 122.397 323.058 121.662C323.148 121.905 323.133 121.598 323.132 121.324C323.148 121.505 323.187 121.559 323.246 121.188C323.22 121.145 323.201 121.066 323.183 120.988L323.194 120.975C323.165 120.509 323.138 120.592 323.122 120.81C323.11 120.8 323.089 120.824 323.06 120.884C323.19 120.404 323.058 119.536 323.225 119.487C323.197 118.095 323.042 117.102 322.988 115.941C323.069 115.82 323.148 116.076 323.167 116.428L323.142 115.608C323.257 115.621 323.206 116.082 323.227 116.332C323.43 115.366 323.053 114.312 323.24 113.165L323.15 112.921L323.167 112.851C323.167 112.851 323.053 112.586 323.039 112.427C323.151 112.269 323.28 112.441 323.277 111.87C323.376 111.427 323.247 110.604 323.207 110.001C323.189 110.323 323.134 110.213 323.099 110.079C323.109 109.793 323.198 109.636 323.156 109.411L323.302 109.387C323.174 109.49 323.17 108.644 323.115 108.535C323.227 108.376 323.199 108.985 323.273 109.047C323.278 107.915 323.27 108.476 323.275 107.344C323.177 106.735 323.146 107.446 323.03 107.159C323.018 106.623 322.928 106.105 323.023 105.491L322.903 105.684C322.827 104.673 322.855 104.065 322.992 103.402C322.148 95.8734 321.653 101.791 321.653 101.791C321.336 104.745 321.64 106.285 321.692 109.801L321.674 109.722Z" fill="#FFBA06"/>
<path d="M326.626 152.42L326.729 152.4C326.729 152.4 326.681 152.381 326.626 152.42Z" fill="#FFBA06"/>
<path d="M326.715 154.368C327.714 153.63 328.114 153.63 329.118 152.811C329.637 152.469 330.163 152.07 330.67 151.717C330.826 151.407 331.364 151.291 331.566 150.977L331.739 150.996C331.822 150.898 331.915 150.787 332.051 150.775L332.076 150.796C332.178 150.65 332.378 150.587 332.428 150.502L332.453 150.523L332.626 150.417L332.62 150.474C332.84 150.238 333.123 150.076 333.387 149.962L333.289 149.879C333.9 149.678 333.951 149.342 334.51 149.202L334.535 149.223C334.938 148.594 335.588 148.846 336.024 148.203C335.962 148.277 336.096 148.242 336.098 148.265C336.355 148.06 336.645 147.84 336.514 147.646C336.72 147.525 336.716 147.606 336.8 147.655C336.747 147.569 336.894 147.419 337.045 147.314L336.983 147.388L337.424 147.064L337.22 146.956C337.484 146.842 337.417 147.122 337.628 146.921L337.526 146.793C337.875 146.602 338.213 146.676 338.603 146.562C339.97 145.713 341.065 144.361 342.4 143.674L342.53 143.72C342.678 143.844 342.662 143.263 342.831 143.362L342.908 143.196C342.908 143.196 343.065 143.159 343.025 143.231C343.153 143.129 343.129 143.108 343.199 142.999L343.404 142.981C343.935 142.65 344.212 142.146 344.727 141.758C345.487 141.43 346.462 140.271 346.999 139.607C347.69 138.61 349.204 138.137 349.842 137.053C349.887 137.049 349.923 136.931 349.898 136.911L350.687 136.122C350.687 136.122 351.632 135.149 352.048 134.405C352.476 133.67 352.391 133.22 350.457 134.245L350.453 134.199C349.971 134.573 349.685 134.837 349.551 135.272C349.312 135.155 349.19 135.6 349.036 135.659L349.023 135.649C348.918 136.024 348.397 136.069 348.279 136.433C348.267 136.423 348.238 136.357 348.29 136.295C348.124 136.492 347.921 136.784 347.8 136.703C347.406 137.172 346.731 137.699 346.597 138.133L346.593 138.088C346.536 138.356 346.407 138.31 346.265 138.528C346.253 138.517 346.208 138.521 346.208 138.521C346.14 138.801 345.702 139.022 345.592 139.203L345.518 139.141L345.17 139.48L345.321 139.375C345.456 139.615 344.921 139.501 344.781 139.868C344.512 140.062 344.637 140.714 344.294 140.847C344.254 141.045 344.272 140.597 344.143 140.826C344.045 140.743 344.177 140.686 344.06 140.65C343.917 140.845 343.661 140.799 343.501 141.064L343.415 140.991C343.254 141.383 342.749 141.358 342.684 141.66C342.425 141.969 342.278 141.593 342.086 142.021L341.868 142.005C341.704 142.099 341.885 142.21 341.675 142.285C341.634 142.208 341.431 142.375 341.467 142.257C341.024 142.432 340.876 142.96 340.262 143.138C340.27 143.355 339.97 143.461 339.972 143.609C339.91 143.558 339.487 143.96 339.642 143.626C339.662 143.602 339.693 143.565 339.708 143.598L339.675 143.486C339.279 143.532 339.257 143.934 338.963 144.108C339.064 144.088 339.17 143.987 339.134 144.105L338.886 144.275L338.888 144.172L338.485 144.401L338.605 144.459C338.384 144.547 338.203 144.437 338.1 144.708C338.054 144.838 338.362 144.697 338.194 144.872C337.895 144.978 337.465 145.163 337.126 145.341C337.225 145.424 337.138 145.477 337.065 145.564L336.979 145.491C336.734 145.832 336.728 145.364 336.448 145.697L336.43 145.619L336.474 145.866C336.289 146.237 336.194 145.799 336.004 146.25C336.133 146.147 336.189 146.405 336.012 146.466L336.002 146.353C335.929 146.439 335.911 146.486 335.844 146.515C335.872 146.433 335.798 146.37 335.669 146.473L335.689 146.3L335.545 146.621C335.285 146.655 335.051 146.984 334.884 146.907C334.884 146.907 334.411 147.119 334.393 147.315C334.427 147.175 334.162 147.289 334.173 147.151C334.119 147.316 333.835 147.603 333.639 147.586L333.66 147.561C333.094 147.759 332.904 148.209 332.368 148.347C332.456 148.442 332.177 148.524 332.323 148.625C331.936 149.036 331.303 148.862 331.394 149.38C331.201 149.534 331.078 149.43 330.956 149.475L330.998 149.426C330.621 149.698 330.501 149.766 330.208 149.94C330.094 150.075 330.192 150.284 329.892 150.39C329.938 150.26 329.831 150.338 329.733 150.404C329.785 150.342 329.806 150.317 329.624 150.333C329.616 150.368 329.608 150.403 329.587 150.428L329.575 150.417C329.425 150.545 329.471 150.541 329.56 150.51C329.56 150.51 329.584 150.531 329.609 150.552C329.37 150.561 329.144 150.855 329.031 150.739C328.557 151.077 328.304 151.453 327.943 151.781C327.849 151.744 327.907 151.624 328 151.514L327.733 151.731C327.668 151.634 327.868 151.571 327.941 151.484C327.491 151.569 327.356 152.129 326.867 152.286L326.843 152.414L326.823 152.438C326.823 152.438 326.789 152.578 326.737 152.64C326.62 152.604 326.596 152.458 326.414 152.599C326.201 152.652 326.024 152.987 325.858 153.185C325.978 153.117 325.984 153.185 325.945 153.257C325.86 153.333 325.732 153.31 325.695 153.404L325.584 153.311C325.703 153.369 325.45 153.62 325.456 153.688C325.339 153.652 325.531 153.499 325.513 153.42C325.165 153.759 325.321 153.574 324.985 153.923C324.87 154.184 325.104 153.981 325.097 154.165C324.952 154.337 324.856 154.551 324.616 154.686L324.767 154.708C324.549 155.092 324.356 155.246 324.071 155.385C322.941 158.455 324.758 156.72 324.714 156.747C325.647 156.038 325.774 155.386 326.785 154.385L326.715 154.368Z" fill="#FFBA06"/>
<path d="M318.989 154.773L318.946 154.673C318.946 154.673 318.939 154.731 318.989 154.773Z" fill="#FFBA06"/>
<path d="M316.421 151.245L316.433 151.256L316.456 151.254L316.421 151.245Z" fill="#FFBA06"/>
<path d="M320.907 154.218C319.822 153.306 319.626 152.889 318.322 152.213C317.73 151.841 317.051 151.522 316.434 151.256C316.058 151.277 315.633 150.856 315.231 150.834L315.137 150.67C314.999 150.66 314.849 150.638 314.748 150.533L314.769 150.508C314.563 150.503 314.38 150.37 314.277 150.368L314.297 150.343L314.073 150.259L314.129 150.243C313.781 150.182 313.462 150.061 313.196 149.901L313.173 150.029C312.626 149.653 312.308 149.806 311.829 149.425L311.85 149.4C311.031 149.448 310.845 148.744 310.013 148.781C310.117 148.784 309.995 148.703 310.016 148.678C309.676 148.582 309.324 148.475 309.23 148.712C308.994 148.618 309.058 148.567 309.071 148.451C309.023 148.558 308.815 148.531 308.625 148.456L308.716 148.448L308.164 148.278L308.196 148.516C307.941 148.343 308.218 148.239 307.927 148.184L307.873 148.349C307.503 148.164 307.36 147.833 307.027 147.554C305.517 146.873 303.685 146.574 302.444 145.572L302.443 145.424C302.495 145.236 301.945 145.489 301.963 145.294L301.757 145.289C301.757 145.289 301.642 145.15 301.745 145.152C301.601 145.073 301.591 145.086 301.465 145.085L301.369 144.899C300.843 144.499 300.276 144.422 299.736 143.989C299.188 143.339 297.843 142.586 297.111 142.055C295.97 141.411 295.555 139.778 294.624 138.932C294.621 138.887 294.514 138.839 294.501 138.829C294.301 138.492 294.1 138.155 293.933 137.803C293.933 137.803 293.587 137.113 292.888 135.768C292.502 135.001 291.922 134.64 291.983 137.195L291.946 137.164C292.122 137.88 292.308 138.31 292.725 138.639C292.548 138.849 292.999 139.164 293.014 139.346L293.002 139.336C293.38 139.611 293.351 140.197 293.737 140.438C293.714 140.44 293.648 140.468 293.585 140.394C293.798 140.616 294.087 140.922 293.994 141.033C294.476 141.586 295.106 142.389 295.598 142.529L295.552 142.533C295.843 142.588 295.811 142.75 296.064 142.9C296.054 142.912 296.058 142.958 296.058 142.958C296.36 143.023 296.686 143.486 296.9 143.582L296.838 143.656L297.292 144.017L297.132 143.882C297.355 143.691 297.361 144.285 297.792 144.374C298.067 144.647 298.715 144.351 298.949 144.674C299.166 144.667 298.705 144.764 298.985 144.831C298.917 144.962 298.837 144.832 298.826 144.97C299.085 145.062 299.121 145.345 299.438 145.443L299.39 145.55C299.864 145.612 300.023 146.124 300.363 146.095C300.798 146.229 300.47 146.543 300.988 146.578L301.075 146.799C301.246 146.922 301.284 146.701 301.436 146.871C301.374 146.945 301.658 147.057 301.501 147.094C301.887 147.461 302.496 147.362 302.986 147.88C303.183 147.771 303.443 148.012 303.596 147.93C303.581 148.023 304.193 148.221 303.793 148.222C303.758 148.213 303.711 148.194 303.731 148.17L303.659 148.256C303.917 148.6 304.324 148.416 304.637 148.595C304.55 148.522 304.408 148.466 304.532 148.444L304.843 148.6L304.746 148.665L305.19 148.912L305.155 148.778C305.363 148.932 305.37 149.148 305.686 149.098C305.843 149.062 305.528 148.86 305.786 148.93C306.065 149.123 306.48 149.43 306.861 149.602C306.872 149.464 306.979 149.512 307.094 149.525L307.069 149.63C307.539 149.647 307.14 149.921 307.589 149.962L307.537 150.024L307.716 149.837C308.155 149.765 307.844 150.135 308.348 150.011C308.173 149.969 308.359 149.747 308.53 149.87L308.457 149.956C308.573 149.969 308.616 149.942 308.678 149.994C308.589 150.025 308.587 150.128 308.762 150.17L308.609 150.252L308.98 150.185C309.169 150.386 309.604 150.394 309.642 150.574C309.642 150.574 310.134 150.84 310.295 150.723C310.163 150.78 310.426 150.918 310.308 151.008C310.486 150.947 310.902 151.002 311.021 151.186L310.996 151.165C311.508 151.533 312.012 151.409 312.466 151.77C312.489 151.642 312.721 151.816 312.728 151.633C313.318 151.708 313.546 152.362 313.935 151.974C314.182 152.056 314.161 152.206 314.282 152.287L314.214 152.293C314.663 152.46 314.793 152.506 315.105 152.685C315.291 152.715 315.422 152.509 315.668 152.716C315.534 152.751 315.664 152.797 315.76 152.857C315.69 152.84 315.657 152.854 315.76 152.983C315.78 152.958 315.838 152.965 315.861 152.963C316.04 153.05 316.023 152.994 315.939 152.944C315.939 152.944 315.96 152.92 315.933 152.876C316.064 153.071 316.448 153.14 316.404 153.293C316.951 153.543 317.392 153.619 317.855 153.819C317.852 153.922 317.727 153.921 317.585 153.865L317.895 154.021C317.823 154.107 317.685 153.971 317.59 153.933C317.84 154.312 318.416 154.228 318.738 154.646L318.874 154.634L318.899 154.655C318.899 154.655 319.045 154.631 319.105 154.66C319.104 154.785 318.962 154.855 319.167 154.986C319.263 155.172 319.636 155.254 319.864 155.383C319.766 155.3 319.832 155.271 319.912 155.276C320.011 155.359 319.998 155.474 320.103 155.499L320.01 155.61C320.068 155.491 320.35 155.707 320.428 155.688C320.415 155.804 320.228 155.626 320.164 155.677C320.534 155.988 320.349 155.832 320.729 156.131C320.999 156.211 320.775 156.001 320.957 155.986C321.139 156.118 321.387 156.2 321.511 156.452L321.532 156.302C321.917 156.52 322.095 156.733 322.212 157.02C325.125 158.86 323.725 156.672 323.686 156.618C322.941 155.403 322.165 155.15 320.851 154.234L320.907 154.218Z" fill="#FFBA06"/>
<path d="M309.157 164.16L309.207 164.202C309.207 164.202 309.18 164.158 309.157 164.16Z" fill="#FFBA06"/>
<path d="M309.1 165.88C309.768 165.811 310.017 165.915 310.65 165.563C310.97 165.433 311.272 165.224 311.543 165.052C311.59 164.796 311.913 164.837 311.984 164.602L312.104 164.66C312.104 164.66 312.17 164.506 312.253 164.533L312.277 164.554C312.303 164.449 312.416 164.439 312.433 164.369L312.458 164.39L312.532 164.326L312.536 164.372C312.625 164.215 312.754 164.113 312.898 164.066L312.82 163.958C313.159 163.906 313.1 163.626 313.418 163.598L313.443 163.619C313.515 163.133 314.037 163.488 314.109 163.001C314.103 163.059 314.159 163.043 314.183 163.063C314.297 162.928 314.411 162.792 314.258 162.6C314.355 162.534 314.383 162.6 314.457 162.662C314.381 162.578 314.442 162.481 314.504 162.407L314.497 162.465L314.674 162.255L314.513 162.12C314.658 162.074 314.7 162.299 314.769 162.167L314.654 162.028C314.828 161.922 315.068 162.061 315.295 162.041C315.953 161.585 316.287 160.687 317.033 160.451L317.131 160.534C317.279 160.658 317.112 160.181 317.238 160.308L317.238 160.182C317.238 160.182 317.341 160.184 317.324 160.254C317.389 160.203 317.376 160.193 317.368 160.102L317.508 160.136C317.794 159.997 317.845 159.661 318.118 159.511C318.547 159.452 318.974 158.843 319.219 158.502C319.523 157.916 320.485 158.198 320.79 157.635C320.815 157.655 320.842 157.573 320.817 157.552L321.278 157.329C321.278 157.329 323.65 156.336 321.172 155.704L321.168 155.659C320.828 155.688 320.642 155.784 320.552 156.066C320.396 155.851 320.321 156.166 320.203 156.131L320.191 156.12C320.132 156.365 319.772 156.168 319.713 156.413C319.701 156.403 319.672 156.337 319.704 156.3C319.61 156.411 319.486 156.558 319.394 156.418C319.137 156.623 318.732 156.829 318.702 157.141L318.698 157.095C318.693 157.301 318.604 157.206 318.525 157.35C318.513 157.34 318.488 157.319 318.488 157.319C318.471 157.515 318.201 157.561 318.177 157.689L318.103 157.627L317.934 157.779L318.01 157.738C318.145 157.977 317.757 157.714 317.722 157.98C317.569 158.061 317.802 158.636 317.585 158.643C317.599 158.802 317.51 158.432 317.478 158.595C317.378 158.49 317.469 158.482 317.372 158.421C317.326 158.551 317.133 158.431 317.068 158.608L316.982 158.535C316.97 158.799 316.614 158.647 316.646 158.884C316.561 159.086 316.335 158.728 316.315 159.027L316.161 158.96C316.085 159.001 316.235 159.148 316.109 159.148C316.045 159.073 315.962 159.172 315.952 159.058C315.692 159.092 315.74 159.511 315.352 159.522C315.426 159.71 315.244 159.725 315.301 159.858C315.24 159.806 315.065 160.038 315.079 159.797C315.089 159.785 315.11 159.76 315.124 159.793L315.071 159.706C314.816 159.66 314.913 159.994 314.76 160.076C314.828 160.07 314.87 160.021 314.877 160.112L314.759 160.202L314.729 160.113L314.533 160.221L314.619 160.294C314.495 160.316 314.347 160.192 314.365 160.396C314.374 160.509 314.54 160.438 314.469 160.547C314.312 160.583 314.065 160.628 313.891 160.734C313.99 160.817 313.936 160.856 313.917 160.903L313.831 160.831C313.782 161.063 313.634 160.665 313.562 160.9L313.521 160.823L313.632 161.042C313.635 161.339 313.416 160.924 313.435 161.276C313.487 161.215 313.609 161.444 313.508 161.464L313.465 161.365C313.465 161.365 313.45 161.458 313.405 161.462C313.399 161.394 313.325 161.332 313.273 161.393L313.227 161.249L313.226 161.5C313.075 161.479 313.014 161.701 312.893 161.62C312.893 161.62 312.649 161.71 312.698 161.877C312.688 161.764 312.544 161.811 312.499 161.689C312.511 161.825 312.423 162.004 312.281 161.948C312.011 161.994 312.019 162.359 311.722 162.362C311.8 162.469 311.652 162.471 311.777 162.597C311.652 162.871 311.214 162.566 311.394 163.053C311.321 163.139 311.218 163.011 311.15 163.017L311.171 162.992C310.999 163.121 310.946 163.16 310.803 163.23C310.753 163.314 310.863 163.533 310.717 163.557C310.707 163.444 310.666 163.493 310.622 163.52C310.643 163.495 310.639 163.45 310.546 163.435C310.548 163.458 310.54 163.493 310.542 163.515L310.53 163.505C310.478 163.566 310.502 163.587 310.548 163.583C310.548 163.583 310.572 163.604 310.597 163.625C310.465 163.556 310.368 163.747 310.286 163.594C310.058 163.74 309.954 163.989 309.784 164.141C309.733 164.077 309.748 163.984 309.8 163.922L309.669 164.002C309.625 163.88 309.73 163.905 309.761 163.868C309.522 163.752 309.481 164.201 309.209 164.099L309.196 164.214L309.184 164.204C309.184 164.204 309.173 164.342 309.152 164.367C309.087 164.27 309.075 164.133 308.976 164.176C308.867 164.106 308.757 164.287 308.659 164.352C308.717 164.359 308.733 164.414 308.715 164.462C308.659 164.478 308.604 164.369 308.575 164.428L308.528 164.284C308.585 164.416 308.428 164.452 308.422 164.51C308.356 164.413 308.482 164.413 308.474 164.323C308.261 164.375 308.363 164.355 308.15 164.408C308.059 164.541 308.207 164.54 308.184 164.668C308.085 164.711 308.004 164.832 307.874 164.786L307.941 164.906C307.759 165.047 307.646 165.057 307.5 164.955C306.188 166.315 307.4 166.45 307.433 166.436C308.109 166.583 308.379 166.137 309.088 165.87L309.1 165.88Z" fill="#FFBA06"/>
<path d="M324.516 155.529L324.579 155.581C324.579 155.581 324.552 155.537 324.516 155.529Z" fill="#FFBA06"/>
<path d="M323.807 157.099C324.566 157.148 324.759 157.394 325.532 157.351C325.903 157.41 326.301 157.387 326.668 157.401C326.871 157.235 327.142 157.463 327.384 157.351L327.451 157.47C327.528 157.43 327.629 157.409 327.68 157.473L327.659 157.498C327.792 157.441 327.901 157.512 327.967 157.483L327.946 157.508L328.084 157.519L328.053 157.556C328.255 157.515 328.441 157.545 328.607 157.622L328.62 157.507C328.947 157.718 329.134 157.496 329.428 157.723L329.407 157.747C329.913 157.521 330.022 158.117 330.507 157.915C330.441 157.944 330.513 157.983 330.505 158.018C330.711 158.023 330.931 158.061 330.99 157.816C331.13 157.85 331.101 157.909 331.076 158.014C331.101 157.909 331.237 157.898 331.353 157.911L331.286 157.939L331.61 157.98L331.603 157.763C331.759 157.853 331.579 158.017 331.76 158.001L331.792 157.838C332.017 157.922 332.098 158.2 332.307 158.377C333.259 158.672 334.396 158.471 335.266 158.887L335.288 159.011C335.281 159.194 335.588 158.779 335.591 158.95L335.711 158.883C335.711 158.883 335.798 158.955 335.744 158.994C335.849 159.019 335.857 158.984 335.934 158.943L336.024 159.061C336.413 159.199 336.775 159.019 337.193 159.098C337.674 159.376 338.652 159.189 339.202 159.061C339.955 158.79 340.882 159.465 341.661 159.089C341.686 159.109 341.761 159.046 341.748 159.035L342.464 158.985C342.464 158.985 345.883 158.472 343.088 157.468L343.108 157.443C342.715 157.386 342.488 157.405 342.256 157.631C342.178 157.398 341.948 157.646 341.862 157.574C341.661 157.763 341.395 157.454 341.194 157.643C341.204 157.631 341.198 157.563 341.254 157.546C341.097 157.583 340.886 157.658 340.862 157.512C340.491 157.578 339.961 157.532 339.717 157.748L339.748 157.711C339.601 157.861 339.566 157.727 339.401 157.798C339.389 157.788 339.387 157.765 339.387 157.765C339.24 157.915 338.943 157.792 338.811 157.849L338.803 157.758L338.496 157.773L338.601 157.799C338.555 158.054 338.392 157.622 338.154 157.78C337.956 157.74 337.696 158.3 337.488 158.146C337.384 158.269 337.586 157.955 337.433 158.037C337.444 157.899 337.505 157.95 337.485 157.849C337.33 157.908 337.255 157.698 337.067 157.771L337.07 157.668C336.799 157.84 336.642 157.476 336.451 157.653C336.193 157.709 336.331 157.32 336.037 157.494L335.956 157.341C335.849 157.293 335.843 157.5 335.745 157.417C335.772 157.334 335.611 157.325 335.696 157.249C335.452 157.065 335.1 157.358 334.8 157.064C334.688 157.222 334.528 157.087 334.447 157.209C334.451 157.128 334.097 157.125 334.326 157.002C334.336 156.99 334.371 156.998 334.363 157.033L334.401 156.938C334.243 156.701 334.015 156.972 333.803 156.899C333.852 156.94 333.945 156.955 333.87 157.019L333.683 156.966L333.745 156.892L333.471 156.767L333.481 156.881C333.37 156.787 333.355 156.606 333.158 156.714C333.061 156.78 333.265 156.888 333.093 156.891C332.935 156.779 332.68 156.607 332.444 156.513C332.443 156.639 332.361 156.612 332.305 156.628L332.33 156.523C332.041 156.617 332.286 156.275 332.016 156.322L332.067 156.26L331.947 156.453C331.674 156.603 331.88 156.208 331.568 156.429C331.671 156.431 331.554 156.67 331.433 156.589L331.505 156.503C331.505 156.503 331.394 156.535 331.345 156.494C331.386 156.445 331.401 156.352 331.298 156.349L331.391 156.238L331.164 156.384C331.049 156.245 330.78 156.314 330.756 156.167C330.756 156.167 330.458 156.022 330.344 156.157C330.417 156.071 330.262 156.004 330.333 155.895C330.215 155.986 329.955 156.02 329.886 155.877C329.559 155.665 329.246 155.886 328.942 155.673C328.941 155.799 328.773 155.699 328.787 155.858C328.417 155.947 328.234 155.414 328.011 155.879C327.85 155.87 327.839 155.734 327.777 155.682L327.808 155.645C327.523 155.658 327.431 155.643 327.221 155.593C327.109 155.625 327.048 155.848 326.859 155.773C326.932 155.686 326.853 155.705 326.773 155.7C326.818 155.696 326.849 155.659 326.751 155.576C326.73 155.601 326.709 155.626 326.699 155.638C326.585 155.648 326.61 155.669 326.657 155.687C326.657 155.687 326.649 155.722 326.673 155.743C326.559 155.604 326.327 155.704 326.326 155.556C325.949 155.554 325.674 155.681 325.358 155.731C325.327 155.642 325.402 155.579 325.503 155.558L325.276 155.578C325.289 155.463 325.408 155.521 325.475 155.492C325.228 155.285 324.927 155.642 324.627 155.474L324.555 155.56C324.558 155.606 324.484 155.669 324.441 155.696C324.398 155.597 324.444 155.467 324.295 155.469C324.172 155.365 323.957 155.521 323.802 155.58C323.895 155.595 323.865 155.654 323.834 155.691C323.766 155.697 323.711 155.588 323.647 155.639L323.635 155.503C323.67 155.637 323.443 155.656 323.424 155.704C323.381 155.605 323.542 155.614 323.559 155.544C323.264 155.569 323.4 155.557 323.105 155.583C322.944 155.7 323.139 155.717 323.081 155.836C322.947 155.871 322.819 155.973 322.642 155.909L322.709 156.029C322.457 156.153 322.296 156.144 322.115 156.034C320.336 157.274 321.917 157.446 321.882 157.437C322.63 157.624 322.939 157.232 323.82 157.11L323.807 157.099Z" fill="#FFBA06"/>
<path d="M157.815 252.388C159.112 251.648 160.637 252.636 161.725 253.593C163.494 255.144 164.803 257.34 167.012 258.292C174.846 261.661 184.733 257.812 192.925 254.326C191.75 250.119 191.104 245.408 187.977 242.421C186.768 241.256 185.231 240.532 183.571 239.978C181.922 239.412 180.153 239.039 178.503 238.599C176.515 238.085 174.457 237.68 172.699 236.643C172.314 236.424 171.934 236.126 171.874 235.697C171.809 235.199 172.215 234.741 172.635 234.442C173.973 233.526 175.667 233.289 177.298 233.25C181.281 233.169 185.162 234.834 189.256 234.595C189.337 234.599 189.413 234.558 189.491 234.54C191.97 233.72 194.373 232.564 196.389 230.892C201.001 227.11 203.237 221.373 204.886 215.836C206.32 211.002 207.509 205.962 209.986 201.69C205.391 201.824 200.909 200.348 196.5 199.186C194.489 198.674 192.438 198.211 190.392 197.817C188.359 197.432 186.31 197.141 184.254 196.884C181.712 196.578 179.15 196.422 176.678 196.91C175.8 197.077 174.8 197.141 174.144 197.746C171.237 200.352 170.067 204.545 167.278 207.335C166.806 207.822 166.253 208.304 165.569 208.317C164.69 208.336 163.968 207.518 163.789 206.631C163.622 205.754 163.852 204.854 164.147 204.028C164.755 202.33 165.795 200.868 166.834 199.407C167.874 197.945 168.924 196.471 169.578 194.769C171.529 189.697 169.88 183.701 168.93 178.251C162.446 180.08 155.524 180.655 149.807 184.075C143.459 187.87 139.092 195.289 138.524 203.27C136.407 202.585 134.904 200.668 133.395 198.936C131.415 196.661 129.227 194.61 126.907 192.764C126.233 196.343 124.609 199.649 123.327 203.075C121.726 207.305 120.652 212.336 122.715 216.513C123.753 218.606 125.494 220.239 127.248 221.756C129.473 223.69 131.753 225.482 134.131 227.208C135.278 228.046 136.484 228.913 137.628 229.855C137.032 232.615 135.836 235.313 134.846 238.016C133.387 242.029 132.41 246.742 134.689 250.363C135.536 251.707 136.783 252.777 138.046 253.777C141.015 256.126 144.261 258.246 147.51 260.389C150.744 262.498 154 264.606 157.025 266.939C156.811 263.14 156.653 259.324 156.611 255.521C156.6 254.334 156.73 252.928 157.797 252.31L157.815 252.388Z" fill="#86081D"/>
<path d="M188.928 213.168L188.69 213.2C188.69 213.2 188.76 213.217 188.928 213.168Z" fill="#FFBA06"/>
<path d="M133.522 231.809C133.522 231.809 133.501 231.834 133.478 231.836C133.499 231.811 133.522 231.809 133.522 231.809Z" fill="#FFBA06"/>
<path d="M179.894 214.726L179.917 214.724L179.972 214.684L179.894 214.726Z" fill="#FFBA06"/>
<path d="M190.974 210.66C188.06 211.723 187.222 211.818 184.251 213.024C182.81 213.537 181.31 214.169 179.905 214.714C179.301 215.132 178.065 215.376 177.325 215.806L176.982 215.812C176.732 215.96 176.414 216.113 176.131 216.149L176.152 216.124C175.759 216.341 175.289 216.45 175.092 216.559L175.113 216.534L174.603 216.715L174.665 216.641C173.997 216.985 173.264 217.231 172.595 217.426L172.706 217.519C171.274 217.872 170.853 218.296 169.551 218.569L169.571 218.544C168.091 219.404 166.995 219.156 165.467 219.996C165.664 219.888 165.362 219.971 165.369 219.913C164.627 220.195 163.828 220.47 163.895 220.715C163.35 220.888 163.433 220.789 163.324 220.719C163.367 220.818 162.904 221.018 162.482 221.169L162.668 221.073L161.448 221.498L161.744 221.621C161.071 221.771 161.51 221.424 160.892 221.683L160.951 221.838C160.047 222.088 159.435 222.015 158.511 222.164C156.683 222.71 154.831 223.362 152.986 223.978C151.142 224.595 149.341 225.185 147.589 225.542L147.4 225.467C147.283 225.306 146.544 226.01 146.373 225.887L146.013 226.09C145.887 226.089 145.65 226.121 145.836 226.025C145.469 226.137 145.471 226.159 145.231 226.294L144.808 226.297C143.342 226.663 142.193 227.254 140.665 227.695C139.72 227.868 138.421 228.312 137.115 228.813C135.81 229.315 134.508 229.861 133.564 230.309C131.625 231.288 129.206 231.863 127.047 232.804C126.142 233.179 125.262 233.575 124.455 234.034C124.332 234.056 124.073 234.238 124.098 234.259L121.04 235.643C121.04 235.643 120.13 236.099 118.936 236.694C117.741 237.288 116.298 238.053 115.248 238.727C113.136 240.087 112.51 240.781 118.349 238.642L118.297 238.703C119.973 237.987 121.006 237.509 122.018 236.782C122.327 236.915 123.371 236.173 123.797 236.068L123.765 236.105C124.672 235.478 125.916 235.325 126.813 234.733C126.782 234.77 126.788 234.838 126.579 234.936C126.908 234.77 127.358 234.56 127.644 234.421C127.918 234.294 128.129 234.219 128.18 234.283C129.528 233.607 131.5 232.887 132.307 232.303L132.255 232.365C132.717 232.017 132.917 232.079 133.45 231.77C133.485 231.779 133.53 231.775 133.53 231.775C134.037 231.422 135.154 231.12 135.592 230.899L135.666 230.962L136.773 230.546L136.35 230.674C136.403 230.361 137.264 230.538 138.025 230.083C138.806 229.856 139.407 229.015 140.252 228.862C140.585 228.616 139.992 229.17 140.528 228.884C140.585 229.016 140.28 229.054 140.467 229.106C141.017 228.853 141.435 228.931 142.094 228.623L142.16 228.72C143.009 228.235 143.92 228.328 144.471 227.949C145.375 227.574 145.2 228.057 146.105 227.556L146.53 227.577C146.955 227.471 146.771 227.316 147.255 227.24C147.253 227.343 147.864 227.141 147.626 227.299C148.72 227.124 149.715 226.467 151.174 226.284C151.424 226.011 152.159 225.913 152.347 225.714C152.409 225.766 153.764 225.306 153.009 225.702C152.943 225.731 152.821 225.776 152.83 225.741L152.761 225.872C153.615 225.833 154.166 225.328 154.971 225.121C154.734 225.153 154.411 225.261 154.606 225.13L155.343 224.929L155.229 225.065L156.325 224.787L156.148 224.722C156.699 224.618 156.938 224.734 157.492 224.4C157.74 224.23 156.945 224.425 157.487 224.207C158.217 224.063 159.317 223.831 160.222 223.582C160.098 223.478 160.356 223.421 160.588 223.321L160.653 223.419C161.575 222.973 161.076 223.542 161.999 223.119L161.927 223.206L162.12 222.926C162.914 222.457 162.651 222.994 163.514 222.394C163.138 222.541 163.259 222.222 163.742 222.123L163.663 222.267C163.917 222.165 163.979 222.091 164.159 222.053C164.031 222.155 164.117 222.228 164.493 222.081L164.282 222.282L164.931 221.86C165.519 221.786 166.34 221.361 166.62 221.428C166.62 221.428 167.838 221.106 168.045 220.859C167.832 221.038 168.513 220.853 168.358 221.038C168.637 220.831 169.505 220.425 169.905 220.424L169.839 220.453C171.216 220.117 172.066 219.506 173.323 219.237C173.212 219.144 173.873 218.984 173.681 218.886C174.878 218.314 176.051 218.396 176.328 217.766C176.88 217.536 177.026 217.637 177.327 217.554L177.207 217.622C178.246 217.212 178.556 217.094 179.333 216.821C179.705 216.629 179.695 216.389 180.41 216.19C180.207 216.357 180.494 216.24 180.761 216.149C180.595 216.22 180.554 216.269 180.925 216.203C180.967 216.154 181.033 216.125 181.097 216.074C181.097 216.074 181.109 216.084 181.122 216.095C181.539 215.899 181.459 215.894 181.248 215.969C181.258 215.957 181.223 215.949 181.166 215.942C181.653 215.889 182.428 215.467 182.53 215.596C183.834 215.072 184.704 214.562 185.762 214.105C185.913 214.126 185.687 214.294 185.379 214.435L186.152 214.117C186.184 214.228 185.726 214.348 185.507 214.458C186.487 214.294 187.34 213.58 188.471 213.311L188.662 213.134L188.73 213.128C188.73 213.128 188.918 212.929 189.071 212.847C189.257 212.877 189.149 213.081 189.677 212.852C190.14 212.778 190.845 212.34 191.382 212.076C191.083 212.182 191.155 212.096 191.273 212.005C191.538 211.891 191.735 211.931 191.92 211.812L191.987 211.932C191.843 211.853 192.638 211.533 192.711 211.447C192.896 211.477 192.332 211.697 192.295 211.791C193.355 211.357 192.813 211.575 193.873 211.141C194.405 210.809 193.729 211.062 193.939 210.838C194.422 210.613 194.877 210.322 195.492 210.166L195.272 210.128C196.169 209.662 196.733 209.442 197.418 209.303C200.73 207.416 200.939 206.918 200.357 206.934C199.775 206.95 198.377 207.437 198.377 207.437C195.526 208.3 194.268 209.221 191.003 210.6L190.974 210.66Z" fill="#FFBA06"/>
<path d="M151.814 228.8L151.856 228.9C151.856 228.9 151.863 228.842 151.814 228.8Z" fill="#FFBA06"/>
<path d="M153.442 232.569L153.407 232.56L153.442 232.569Z" fill="#FFBA06"/>
<path d="M149.929 229.34C150.878 230.139 150.981 230.541 152.008 231.321C152.456 231.74 152.984 232.163 153.442 232.569C153.79 232.63 154.027 233.124 154.381 233.254L154.407 233.423C154.537 233.469 154.658 233.55 154.703 233.672L154.682 233.696C154.859 233.761 154.966 233.935 155.06 233.972L155.04 233.997L155.2 234.131L155.132 234.137C155.42 234.295 155.645 234.527 155.836 234.751L155.919 234.652C156.238 235.173 156.601 235.142 156.873 235.644L156.853 235.669C157.604 235.901 157.504 236.596 158.258 236.851C158.163 236.813 158.241 236.921 158.22 236.945C158.5 237.138 158.771 237.366 158.949 237.179C159.134 237.335 159.045 237.365 159.008 237.46C159.08 237.374 159.271 237.472 159.419 237.596L159.314 237.571L159.754 237.899L159.815 237.676C159.995 237.912 159.698 237.915 159.939 238.054L160.053 237.918C160.34 238.202 160.337 238.557 160.56 238.892C161.763 239.988 163.455 240.654 164.51 241.751L164.489 241.902C164.401 242.081 165.004 241.914 164.95 242.079L165.145 242.096C165.145 242.096 165.238 242.237 165.135 242.234C165.258 242.338 165.289 242.301 165.417 242.324L165.49 242.512C165.983 242.927 166.566 243.059 167.113 243.435C167.671 244.073 169.116 244.656 169.976 244.959C171.207 245.322 172.131 246.625 173.456 246.876C173.493 246.907 173.607 246.897 173.617 246.885L174.666 247.389C174.666 247.389 175.963 247.974 176.867 248.124C177.784 248.285 178.222 248.064 176.582 246.537L176.613 246.5C176.093 246.168 175.735 245.993 175.246 246.024C175.303 245.756 174.791 245.789 174.689 245.661L174.709 245.636C174.276 245.651 174.064 245.178 173.652 245.167C173.662 245.155 173.714 245.094 173.786 245.133C173.526 245.041 173.174 244.934 173.231 244.792C172.628 244.559 171.877 244.075 171.388 244.106L171.419 244.069C171.149 244.115 171.158 243.954 170.88 243.91C170.878 243.887 170.876 243.864 170.876 243.864C170.569 243.879 170.207 243.533 169.997 243.483L170.035 243.388L169.58 243.153L169.728 243.278C169.527 243.466 169.493 242.932 169.078 242.899C168.799 242.706 168.164 243.036 167.92 242.725C167.693 242.745 168.164 242.636 167.896 242.579C167.965 242.447 168.055 242.565 168.055 242.439C167.798 242.37 167.787 242.108 167.472 242.032L167.544 241.946C167.07 241.884 166.972 241.401 166.642 241.418C166.24 241.27 166.594 241 166.12 240.938L166.067 240.725C165.932 240.611 165.857 240.8 165.728 240.629C165.79 240.555 165.561 240.426 165.71 240.424C165.415 240.05 164.81 240.068 164.477 239.514C164.254 239.579 164.072 239.32 163.917 239.379C163.956 239.307 163.438 238.998 163.821 239.067C163.856 239.076 163.893 239.107 163.883 239.119L163.98 239.054C163.833 238.678 163.418 238.771 163.17 238.541C163.223 238.628 163.355 238.696 163.219 238.708L162.972 238.501L163.084 238.468L162.747 238.143L162.724 238.271C162.582 238.089 162.645 237.889 162.344 237.846C162.196 237.848 162.423 238.102 162.207 237.984C162.015 237.738 161.72 237.363 161.455 237.077C161.397 237.197 161.323 237.134 161.226 237.074L161.299 236.988C160.862 236.831 161.331 236.699 160.927 236.528L161.004 236.488L160.772 236.588C160.332 236.511 160.77 236.291 160.263 236.243C160.386 236.347 160.156 236.469 160.04 236.308L160.149 236.253C160.053 236.193 159.997 236.209 159.956 236.132C160.036 236.137 160.097 236.04 159.951 235.938L160.12 235.912L159.749 235.853C159.647 235.599 159.258 235.461 159.3 235.286C159.3 235.286 158.968 234.88 158.766 234.921C158.914 234.919 158.723 234.696 158.88 234.659C158.697 234.652 158.337 234.455 158.319 234.251L158.344 234.271C158.026 233.773 157.505 233.692 157.247 233.223C157.165 233.322 157.03 233.082 156.952 233.249C156.449 232.972 156.472 232.318 155.976 232.533C155.779 232.367 155.848 232.235 155.782 232.138L155.832 232.179C155.484 231.867 155.374 231.773 155.146 231.519C154.99 231.429 154.797 231.583 154.615 231.324C154.753 231.335 154.654 231.252 154.556 231.17C154.617 231.221 154.661 231.195 154.591 231.052C154.558 231.066 154.511 231.048 154.486 231.027C154.338 230.903 154.342 230.948 154.393 231.012C154.393 231.012 154.373 231.037 154.377 231.082C154.312 230.859 153.956 230.707 154.047 230.573C153.591 230.19 153.167 230.044 152.754 229.759C152.769 229.667 152.907 229.678 153.028 229.758L152.736 229.555C152.809 229.469 152.938 229.641 153.022 229.69C152.826 229.273 152.255 229.277 151.987 228.82L151.851 228.831L151.826 228.811C151.826 228.811 151.678 228.812 151.618 228.783C151.631 228.668 151.773 228.598 151.578 228.455C151.492 228.257 151.107 228.164 150.881 228.058C150.98 228.141 150.913 228.17 150.845 228.175C150.759 228.103 150.749 227.989 150.644 227.964L150.738 227.853C150.679 227.973 150.387 227.769 150.309 227.787C150.31 227.662 150.507 227.827 150.583 227.787C150.182 227.513 150.398 227.631 149.977 227.382C149.709 227.325 149.943 227.522 149.774 227.548C149.56 227.452 149.338 227.391 149.149 227.19L149.15 227.339C148.738 227.203 148.531 227.049 148.328 226.816C145.099 226.352 147.175 227.761 147.138 227.73C148.025 228.476 148.689 228.487 149.908 229.239L149.929 229.34Z" fill="#FFBA06"/>
<path d="M152.514 197.043C152.514 197.043 152.514 197.043 152.512 197.021L152.514 197.043Z" fill="#FFBA06"/>
<path d="M150.512 218.614L150.501 218.626L150.516 218.659L150.512 218.614Z" fill="#FFBA06"/>
<path d="M148.763 223.646C149.375 222.393 149.727 222.1 150.061 220.676C150.279 220.017 150.397 219.275 150.512 218.614C150.402 218.269 150.689 217.753 150.608 217.348L150.722 217.213C150.7 217.089 150.699 216.94 150.78 216.819L150.804 216.84C150.764 216.638 150.837 216.426 150.817 216.324L150.842 216.345L150.868 216.114L150.917 216.156C150.877 215.828 150.916 215.482 150.994 215.189L150.868 215.188C151.089 214.575 150.859 214.298 151.087 213.752L151.111 213.773C150.861 212.994 151.459 212.634 151.209 211.856C151.239 211.944 151.275 211.827 151.31 211.835C151.303 211.493 151.317 211.126 151.074 211.09C151.098 210.836 151.172 210.899 151.261 210.868C151.145 210.855 151.126 210.628 151.133 210.445L151.163 210.534L151.172 209.973L150.963 210.071C151.041 209.778 151.211 210.027 151.186 209.732L151.025 209.723C151.093 209.317 151.36 209.099 151.51 208.721C151.724 207.09 151.499 205.281 152.027 203.852L152.161 203.818C152.345 203.825 151.961 203.355 152.143 203.339L152.092 203.149C152.092 203.149 152.196 203.026 152.214 203.105C152.246 202.942 152.223 202.944 152.189 202.81L152.313 202.662C152.536 202.071 152.442 201.508 152.674 200.882C153.094 200.182 153.358 198.742 153.605 197.898C153.84 196.643 155.12 195.847 155.56 194.723C155.593 194.708 155.606 194.593 155.594 194.583C155.822 194.312 156.05 194.04 156.29 193.78C156.29 193.78 156.771 193.258 157.724 192.25C158.257 191.666 158.385 191.038 156.231 191.773L156.227 191.727C155.688 192.094 155.369 192.373 155.226 192.843C154.998 192.714 154.86 193.229 154.705 193.288L154.692 193.278C154.591 193.698 154.088 193.821 153.987 194.241C153.975 194.231 153.923 194.167 153.973 194.083C153.846 194.334 153.671 194.692 153.552 194.633C153.226 195.222 152.713 196.032 152.733 196.533L152.696 196.502C152.732 196.785 152.594 196.774 152.539 197.064C152.528 197.076 152.493 197.068 152.493 197.068C152.521 197.386 152.201 197.791 152.198 198.019L152.116 197.992L151.942 198.499L152.03 198.32C152.239 198.496 151.736 198.62 151.762 199.063C151.608 199.396 152.045 199.953 151.819 200.247C151.882 200.447 151.675 200.042 151.699 200.314C151.559 200.281 151.652 200.17 151.528 200.192C151.517 200.456 151.285 200.556 151.292 200.898L151.187 200.873C151.261 201.335 150.862 201.61 150.982 201.942C150.986 202.388 150.622 202.145 150.723 202.65L150.553 202.802C150.501 202.99 150.695 202.984 150.597 203.176C150.515 203.149 150.47 203.427 150.423 203.282C150.201 203.747 150.454 204.297 150.14 204.896C150.291 205.065 150.146 205.364 150.271 205.49C150.203 205.496 150.177 206.127 150.053 205.749C150.039 205.716 150.058 205.668 150.08 205.666L149.994 205.594C149.739 205.947 150.02 206.289 149.936 206.639C149.984 206.532 149.995 206.394 150.05 206.504L149.999 206.839L149.913 206.767L149.817 207.255L149.927 207.2C149.856 207.435 149.656 207.498 149.784 207.795C149.864 207.926 149.96 207.586 149.959 207.837C149.848 208.144 149.696 208.626 149.628 209.032C149.752 209.01 149.739 209.125 149.749 209.239L149.645 209.236C149.753 209.684 149.406 209.371 149.478 209.811L149.416 209.759L149.624 209.912C149.797 210.332 149.388 210.093 149.635 210.574C149.632 210.403 149.871 210.52 149.808 210.719L149.721 210.647C149.721 210.773 149.76 210.826 149.743 210.896C149.702 210.82 149.601 210.84 149.604 211.011L149.469 210.897L149.634 211.226C149.495 211.467 149.611 211.879 149.458 211.961C149.458 211.961 149.332 212.487 149.481 212.634C149.391 212.516 149.336 212.806 149.213 212.703C149.318 212.854 149.365 213.272 149.218 213.422L149.193 213.401C149.026 213.976 149.248 214.437 149.042 214.958C149.168 214.958 149.065 215.23 149.233 215.181C149.317 215.757 148.766 216.136 149.214 216.429C149.203 216.693 149.044 216.706 148.998 216.836L148.982 216.78C148.943 217.252 148.921 217.403 148.835 217.73C148.851 217.912 149.075 217.995 148.952 218.292C148.885 218.172 148.874 218.31 148.849 218.415C148.853 218.334 148.828 218.314 148.737 218.447C148.762 218.468 148.766 218.513 148.78 218.547L148.768 218.536C148.74 218.744 148.783 218.718 148.811 218.635C148.811 218.635 148.846 218.644 148.866 218.619C148.721 218.792 148.732 219.179 148.581 219.158C148.471 219.739 148.511 220.193 148.428 220.692C148.339 220.722 148.305 220.588 148.316 220.45L148.242 220.788C148.124 220.752 148.235 220.571 148.26 220.466C147.957 220.801 148.175 221.342 147.844 221.737L147.901 221.869L147.88 221.893C147.88 221.893 147.949 222.036 147.933 222.106C147.809 222.128 147.719 222.01 147.635 222.235C147.476 222.374 147.474 222.751 147.415 222.997C147.486 222.888 147.525 222.941 147.531 223.009C147.483 223.116 147.359 223.139 147.356 223.242L147.227 223.196C147.365 223.207 147.223 223.55 147.239 223.606C147.115 223.628 147.244 223.4 147.193 223.336C146.991 223.776 147.097 223.55 146.883 223.98C146.861 224.256 147.01 224.003 147.07 224.158C146.974 224.372 146.96 224.613 146.759 224.802L146.908 224.801C146.774 225.235 146.608 225.432 146.349 225.615C145.188 228.847 147.019 227.02 147.061 226.971C148.074 225.992 148.164 225.184 148.744 223.693L148.763 223.646Z" fill="#FFBA06"/>
<path d="M136.944 214.105L136.927 214.176C136.927 214.176 136.959 214.138 136.944 214.105Z" fill="#FFBA06"/>
<path d="M136.596 216.571L136.574 216.573L136.596 216.571Z" fill="#FFBA06"/>
<path d="M135.374 214.321C135.567 214.968 135.52 215.223 135.957 215.78C136.141 216.061 136.381 216.326 136.597 216.57C136.825 216.573 136.865 216.902 137.096 216.927L137.06 217.045C137.06 217.045 137.213 217.089 137.208 217.169L137.188 217.194C137.303 217.207 137.335 217.318 137.393 217.325L137.372 217.349L137.459 217.422L137.438 217.446C137.59 217.49 137.703 217.606 137.783 217.737L137.866 217.638C137.974 217.96 138.238 217.846 138.323 218.17L138.303 218.195C138.771 218.189 138.545 218.757 139.024 218.738C138.966 218.732 138.995 218.798 138.962 218.812C139.106 218.891 139.252 218.993 139.407 218.808C139.493 218.88 139.429 218.932 139.379 219.016C139.452 218.93 139.547 218.967 139.631 219.017L139.563 219.023L139.781 219.164L139.879 218.973C139.948 219.116 139.748 219.179 139.89 219.235L139.993 219.112C140.121 219.261 140.041 219.53 140.116 219.741C140.679 220.298 141.585 220.471 141.962 221.125L141.903 221.244C141.791 221.402 142.215 221.149 142.136 221.293L142.25 221.283C142.25 221.283 142.27 221.384 142.202 221.39C142.263 221.442 142.284 221.417 142.352 221.411L142.341 221.549C142.523 221.808 142.853 221.791 143.067 222.012C143.218 222.434 143.87 222.709 144.263 222.892C144.873 223.068 144.821 224.055 145.432 224.254C145.411 224.279 145.502 224.271 145.512 224.258L145.822 224.666C145.822 224.666 147.285 226.78 147.362 224.236L147.383 224.211C147.3 223.91 147.171 223.738 146.882 223.706C147.048 223.508 146.726 223.491 146.752 223.385C146.508 223.349 146.613 222.974 146.36 222.951C146.37 222.938 146.424 222.899 146.461 222.931C146.34 222.85 146.183 222.76 146.277 222.649C146.03 222.442 145.747 222.078 145.442 222.116L145.463 222.091C145.283 222.129 145.364 222.008 145.201 221.976C145.212 221.964 145.222 221.952 145.222 221.952C145.03 221.98 144.939 221.713 144.813 221.713L144.875 221.639L144.667 221.485L144.741 221.547C144.53 221.749 144.687 221.312 144.448 221.321C144.333 221.183 143.849 221.533 143.796 221.321C143.651 221.367 143.98 221.202 143.832 221.203C143.925 221.092 143.92 221.173 143.968 221.066C143.841 221.042 143.901 220.82 143.728 220.801L143.801 220.714C143.528 220.738 143.588 220.367 143.377 220.442C143.167 220.392 143.474 220.102 143.181 220.151L143.212 219.988C143.149 219.913 143.061 220.092 143.017 219.971C143.079 219.897 142.959 219.838 143.059 219.795C142.969 219.552 142.581 219.688 142.492 219.319C142.341 219.423 142.28 219.246 142.172 219.323C142.224 219.262 141.95 219.137 142.175 219.095C142.175 219.095 142.2 219.115 142.189 219.128L142.262 219.041C142.263 218.79 141.98 218.951 141.867 218.835C141.883 218.891 141.943 218.92 141.866 218.961L141.755 218.868L141.842 218.815L141.701 218.633L141.653 218.74C141.598 218.63 141.685 218.451 141.495 218.502C141.406 218.532 141.488 218.685 141.381 218.637C141.312 218.495 141.212 218.263 141.085 218.114C141.014 218.223 140.987 218.18 140.93 218.173L141.002 218.087C140.749 218.063 141.084 217.84 140.865 217.825L140.917 217.763L140.747 217.915C140.477 217.961 140.819 217.68 140.484 217.778C140.556 217.817 140.353 217.983 140.31 217.884L140.373 217.81C140.373 217.81 140.294 217.828 140.28 217.795C140.336 217.779 140.373 217.684 140.314 217.655L140.433 217.588L140.198 217.642C140.184 217.483 139.966 217.468 140.022 217.326C140.022 217.326 139.889 217.109 139.749 217.201C139.848 217.158 139.78 217.038 139.89 216.983C139.768 217.028 139.568 216.965 139.602 216.825C139.498 216.548 139.161 216.623 139.103 216.342C139.02 216.441 138.986 216.307 138.894 216.44C138.602 216.363 138.812 215.887 138.401 216.152C138.314 216.079 138.397 215.98 138.379 215.902L138.404 215.923C138.254 215.776 138.215 215.722 138.112 215.594C138.03 215.566 137.836 215.697 137.789 215.553C137.89 215.533 137.841 215.491 137.804 215.46C137.828 215.481 137.862 215.467 137.876 215.374C137.856 215.399 137.831 215.378 137.808 215.38C137.734 215.318 137.736 215.34 137.74 215.386C137.74 215.386 137.719 215.41 137.699 215.435C137.732 215.295 137.533 215.232 137.661 215.13C137.485 214.939 137.239 214.88 137.065 214.713C137.117 214.651 137.197 214.655 137.257 214.684L137.134 214.581C137.241 214.503 137.249 214.594 137.298 214.635C137.367 214.378 136.947 214.403 136.981 214.137L136.878 214.134C136.878 214.134 136.775 214.132 136.74 214.123C136.802 214.049 136.936 214.015 136.883 213.928C136.919 213.811 136.74 213.723 136.653 213.651C136.659 213.719 136.601 213.712 136.556 213.716C136.529 213.673 136.614 213.597 136.555 213.568L136.675 213.5C136.567 213.578 136.498 213.436 136.44 213.429C136.512 213.343 136.547 213.477 136.613 213.449C136.527 213.25 136.57 213.349 136.462 213.153C136.33 213.084 136.354 213.231 136.228 213.23C136.175 213.143 136.043 213.075 136.067 212.947L135.984 213.046C135.799 212.89 135.777 212.766 135.831 212.602C134.343 211.519 134.459 212.732 134.474 212.765C134.477 213.462 134.927 213.651 135.291 214.294L135.374 214.321Z" fill="#FFBA06"/>
<path d="M148.305 227.468L148.252 227.531C148.252 227.531 148.309 227.514 148.305 227.468Z" fill="#FFBA06"/>
<path d="M146.603 227.09C146.702 227.848 146.518 228.092 146.731 228.84C146.762 229.203 146.853 229.595 146.919 229.966C147.117 230.132 146.96 230.443 147.127 230.646L147.044 230.744C147.044 230.744 147.123 230.874 147.074 230.959L147.049 230.938C147.116 231.058 147.081 231.175 147.12 231.229L147.095 231.208L147.097 231.357L147.06 231.326C147.145 231.524 147.151 231.718 147.108 231.893L147.232 231.871C147.092 232.237 147.356 232.375 147.179 232.71L147.154 232.689C147.478 233.13 146.893 233.375 147.217 233.815C147.178 233.762 147.151 233.844 147.116 233.836C147.156 234.038 147.164 234.254 147.405 234.268C147.406 234.416 147.312 234.379 147.223 234.409C147.326 234.412 147.383 234.544 147.37 234.659L147.321 234.618L147.36 234.946L147.573 234.893C147.508 235.07 147.313 234.927 147.362 235.095L147.533 235.091C147.497 235.334 147.212 235.473 147.095 235.712C146.987 236.716 147.411 237.788 147.149 238.725L147.027 238.77C146.836 238.798 147.323 239.018 147.144 239.057L147.255 239.15C147.255 239.15 147.161 239.261 147.135 239.218C147.132 239.321 147.167 239.329 147.229 239.381L147.125 239.504C147.057 239.91 147.314 240.231 147.316 240.654C147.122 241.185 147.499 242.112 147.725 242.619C148.151 243.313 147.612 244.354 148.151 245.039C148.131 245.064 148.215 245.114 148.238 245.112L148.434 245.804C148.434 245.804 149.607 249.063 150.161 246.077L150.207 246.073C150.173 245.688 150.108 245.465 149.841 245.282C150.071 245.159 149.77 244.991 149.829 244.871L149.841 244.882C149.586 244.71 149.866 244.377 149.646 244.213C149.658 244.223 149.737 244.205 149.763 244.248C149.694 244.106 149.563 243.911 149.718 243.852C149.573 243.499 149.528 242.977 149.248 242.784L149.273 242.805C149.102 242.682 149.222 242.615 149.12 242.487C149.13 242.474 149.151 242.45 149.151 242.45C148.97 242.34 149.033 242.014 148.955 241.906L149.057 241.886L148.986 241.595L148.985 241.721C148.701 241.734 149.112 241.47 148.913 241.281C148.918 241.075 148.29 240.947 148.396 240.72C148.252 240.641 148.618 240.781 148.503 240.642C148.65 240.618 148.6 240.703 148.71 240.648C148.618 240.507 148.824 240.386 148.718 240.212L148.819 240.192C148.583 239.973 148.916 239.727 148.721 239.584C148.608 239.342 149.035 239.385 148.809 239.153L148.948 239.038C148.961 238.923 148.759 238.963 148.829 238.854C148.932 238.857 148.896 238.7 148.993 238.76C149.128 238.474 148.762 238.208 149.015 237.832C148.826 237.757 148.936 237.576 148.804 237.507C148.883 237.489 148.819 237.14 148.985 237.343C148.997 237.354 149.001 237.399 148.954 237.38L149.059 237.405C149.258 237.194 148.947 237.038 148.985 236.817C148.944 236.867 148.951 236.957 148.89 236.906L148.907 236.71L149.002 236.747L149.057 236.457L148.945 236.489C149.002 236.347 149.204 236.307 149.052 236.137C148.966 236.065 148.893 236.277 148.856 236.12C148.931 235.93 149.067 235.644 149.103 235.401C148.979 235.423 148.973 235.355 148.967 235.287L149.081 235.277C148.944 235.015 149.324 235.188 149.21 234.923L149.293 234.951L149.058 234.879C148.842 234.635 149.287 234.757 149.002 234.496C149.022 234.597 148.754 234.54 148.812 234.421L148.918 234.446C148.918 234.446 148.852 234.349 148.871 234.301C148.92 234.343 149.021 234.322 149.013 234.232L149.145 234.3L148.956 234.099C149.081 233.952 148.946 233.712 149.088 233.642C149.088 233.642 149.174 233.315 149.008 233.238C149.094 233.31 149.146 233.123 149.266 233.181C149.155 233.088 149.065 232.844 149.193 232.742L149.206 232.752C149.323 232.388 149.037 232.126 149.179 231.783C149.055 231.805 149.12 231.628 148.963 231.664C148.808 231.323 149.273 231.02 148.773 230.915C148.737 230.758 148.893 230.722 148.898 230.641L148.935 230.672C148.876 230.392 148.869 230.301 148.861 230.084C148.806 229.975 148.567 229.984 148.617 229.774C148.714 229.834 148.696 229.756 148.69 229.688C148.716 229.731 148.751 229.739 148.789 229.645C148.764 229.624 148.74 229.603 148.727 229.593C148.693 229.459 148.672 229.483 148.666 229.541C148.666 229.541 148.643 229.543 148.61 229.557C148.724 229.422 148.568 229.207 148.725 229.17C148.649 228.811 148.456 228.565 148.35 228.265C148.426 228.224 148.511 228.274 148.554 228.373L148.501 228.161C148.614 228.151 148.591 228.279 148.62 228.345C148.778 228.057 148.348 227.843 148.457 227.513L148.35 227.465C148.35 227.465 148.23 227.407 148.214 227.351C148.311 227.286 148.439 227.309 148.415 227.162C148.483 227.031 148.295 226.83 148.203 226.689C148.21 226.78 148.14 226.763 148.103 226.732C148.085 226.654 148.172 226.6 148.11 226.549L148.245 226.514C148.125 226.582 148.06 226.359 148.002 226.352C148.099 226.287 148.113 226.445 148.193 226.45C148.1 226.161 148.147 226.305 148.053 226.016C147.905 225.892 147.933 226.084 147.803 226.038C147.746 225.906 147.6 225.804 147.642 225.629L147.56 225.727C147.379 225.492 147.343 225.335 147.406 225.135C145.804 223.662 145.997 225.234 145.995 225.211C145.981 225.978 146.423 226.203 146.723 227.023L146.603 227.09Z" fill="#FFBA06"/>
<path d="M421.32 219.267C421.617 219.853 422.004 220.417 422.427 220.922C422.449 220.858 422.054 220.506 421.32 219.267Z" fill="#FFBA06"/>
<path d="M136.504 253.396C136.333 253.425 136.141 253.464 135.997 253.503C136.361 253.435 136.47 253.401 136.504 253.396Z" fill="#FFBA06"/>
<path d="M390.257 173.514C390.257 173.514 390.33 173.539 390.379 173.538C390.569 173.551 390.788 173.574 390.958 173.598L390.272 173.519L390.257 173.514Z" fill="#FFBA06"/>
<path d="M460.934 192.63C458.065 195.665 455.38 198.376 453.219 201.344C451.039 204.268 449.307 207.367 448.464 210.684C448.029 212.329 447.857 214.028 447.934 215.666C448.019 217.381 448.51 219.09 449.264 220.501C450.85 223.297 453.197 225.32 456.129 226.326C457.584 226.834 459.254 227.028 460.968 226.645C462.691 226.284 464.352 225.198 465.524 223.755C466.679 222.306 467.342 220.611 467.733 218.989C468.167 217.344 468.21 215.766 468.376 214.083C468.826 207.369 466.577 199.638 461.157 192.745C455.959 186.169 449.029 181.082 441.515 177.568C437.785 175.784 433.817 174.379 429.921 173.37C426.021 172.323 422.109 171.512 418.231 170.954C414.538 170.572 409.442 170.033 404.133 169.956C398.834 169.846 393.32 170.254 388.988 170.945C387.859 171.013 386.729 171.081 385.587 171.183C382.6 171.695 379.123 172.351 376.133 172.77L376.304 172.682C371.901 173.626 366.928 174.444 364.748 174.905L364.92 174.817L359.596 175.735L360.504 175.497C352.868 176.904 344.974 177.74 338.103 177.359L338.659 177.627C331.3 177.187 326.364 176.24 321.768 174.876C317.21 173.45 312.826 171.678 307.787 167.511L307.959 167.571C301.288 162.648 298.211 156.332 294.917 150.236C293.255 147.155 291.563 144.009 289.313 140.852C287.009 137.751 284.178 134.65 280.453 131.997C282.31 133.313 279.752 131.289 279.918 131.366C276.51 128.861 272.635 126.84 269.566 125.676C268.028 125.102 266.703 124.676 265.745 124.452C264.782 124.245 264.194 124.17 264.138 124.28C258.308 122.725 259.397 122.976 258.665 122.609C258.658 122.829 253.463 121.922 248.73 121.954C249.448 121.908 250.184 121.962 250.906 121.955C246.396 121.75 241.844 122.068 237.382 122.88C238.284 122.861 239.17 122.837 240.064 122.891C236.514 123.354 236.05 123.377 235.624 123.34C235.196 123.357 234.808 123.314 231.445 124.195L231.599 124.508C226.777 125.75 223.002 127.006 219.313 128.422C215.639 129.842 212.038 131.455 207.735 133.823C198.901 138.961 190.624 145.367 182.844 152.41C175.099 159.502 167.909 167.418 161.881 176.128C158.883 180.489 156.081 184.992 153.752 189.698C151.391 194.393 149.323 199.208 147.803 204.159C144.551 213.969 143.308 224.258 144.049 233.944L144.002 235.687C143.879 236.089 144.247 238.754 144.983 241.419C145.566 244.123 146.571 246.771 146.585 247.535C146.995 248.975 147.57 250.342 148.124 251.721C148.494 252.924 149.319 255.435 148.49 253.386C149.202 255.32 149.743 256.232 150.119 257.066C150.543 257.863 150.81 258.604 151.59 259.84L153.541 263.8C157.744 270.713 163.038 276.21 169.372 280.238C170.163 280.736 170.949 281.252 171.767 281.723C172.609 282.128 173.466 282.538 174.323 282.949C175.987 283.863 177.831 284.415 179.661 285.054C183.331 286.41 187.559 286.868 191.898 286.106C194.478 285.655 197.571 284.642 200.055 281.954C201.307 280.632 202.166 278.876 202.66 277.011C203.128 275.119 203.092 273.162 202.758 271.304C202.069 267.6 200.454 264.184 198.189 261.17C195.918 258.173 193.022 255.661 189.866 253.689C183.513 249.766 176.26 247.714 169.436 246.997C167.723 246.825 166.042 246.664 164.413 246.502C162.769 246.484 161.157 246.476 159.582 246.463C158.807 246.47 158.034 246.422 157.263 246.468C156.502 246.535 155.762 246.592 155.023 246.648C153.559 246.767 152.149 246.885 150.791 247.004C135.713 249.109 119.722 255.135 106.135 265.484C99.3754 270.661 93.2186 276.826 88.1627 283.709C83.097 290.57 79.1131 298.254 76.4584 305.902C76.2541 306.386 75.927 307.272 75.6773 308.037C75.5446 308.416 75.4392 308.768 75.3625 309.038C75.276 309.286 75.234 309.456 75.2496 309.462C71.8691 318.634 68.6607 327.866 62.8331 335.35C62.8331 335.35 62.4937 335.769 61.8653 336.512C61.2055 337.245 60.3801 338.401 59.1298 339.669C56.7116 342.269 53.0028 345.548 48.366 348.67C43.7292 351.791 38.1462 354.657 32.4316 356.994C26.7269 359.354 20.9004 361.208 15.8176 362.693C5.6577 365.645 -1.53992 367.353 0.297255 367.421C1.20885 367.424 4.36291 366.989 10.4602 365.766C13.5097 365.128 17.2962 364.339 21.861 363.081C26.4415 361.829 31.8282 360.228 37.9612 357.648L37.3287 358.001C44.6007 354.874 50.2175 351.409 54.9038 347.693C59.5646 343.95 63.2242 339.858 66.3082 335.101C66.6599 334.798 67.3485 333.983 68.1269 332.81C68.8955 331.615 69.7794 330.09 70.5924 328.467C72.2343 325.225 73.6341 321.621 74.3978 319.887L74.2767 320.234C75.9772 315.568 77.6754 310.809 79.5423 306.22C81.368 301.597 83.5898 297.299 85.711 293.187C85.6377 293.347 85.6014 293.501 85.4392 293.815C85.2769 294.128 85.0083 294.646 84.5626 295.62C87.642 289.621 93.1048 282.176 93.7405 282.065C98.704 275.797 105.79 269.234 113.062 264.348C120.311 259.379 127.68 256.174 132.303 254.196L131.672 254.494C134.333 253.46 136.081 252.83 137.932 252.254C139.796 251.794 141.749 251.328 144.845 250.557C145.182 250.545 145.643 250.484 145.563 250.512C147.08 250.19 148.956 249.845 150.984 249.516C153.039 249.363 155.236 249.205 157.401 249.035C159.566 249.069 161.694 249.108 163.596 249.143C165.495 249.232 167.121 249.504 168.363 249.567L168.651 249.797C172.697 250.174 176.638 251.105 180.418 252.444C179.021 251.919 177.586 251.455 176.122 251.073C177.726 251.004 185.122 253.55 191.95 258.88C193.485 260.213 194.906 261.672 196.213 263.258C197.449 264.894 198.645 266.645 199.46 268.634C200.345 270.573 200.913 272.716 200.837 274.893C200.766 277.054 199.857 279.255 198.309 280.77C197.601 281.541 197.364 281.718 197.387 281.652C197.42 281.608 197.682 281.31 197.879 281.046C198.077 280.782 198.236 280.578 198.059 280.683C197.882 280.787 197.461 281.289 196.212 282.149C196.072 282.1 196.628 281.664 197.028 281.323C197.428 280.981 197.647 280.706 197.029 281.119C194.788 282.911 192.3 283.449 189.769 283.658C187.215 283.785 184.446 283.669 180.995 282.594L180.789 282.281C179.651 281.92 178.528 281.565 177.443 281.205C176.392 280.745 175.365 280.22 174.363 279.721C173.869 279.475 173.355 279.24 172.889 278.966C172.434 278.659 171.974 278.368 171.519 278.062C170.626 277.453 169.737 276.883 168.906 276.297C165.691 273.692 163.018 271.092 160.829 268.716C160.026 267.75 159.359 266.943 158.79 266.263C158.269 265.543 157.877 264.907 157.54 264.363C156.867 263.276 156.441 262.534 156.021 261.777C155.65 260.98 155.263 260.178 154.634 259.014C153.957 257.888 153.199 256.29 152.026 253.918C151.5 252.66 151.21 251.28 150.813 249.956C150.054 247.858 149.776 247.094 149.475 246.248C149.205 245.413 148.783 244.562 148.321 242.066C148.55 242.313 147.225 235.757 147.961 238.625C147.188 232.948 146.79 227.104 147.307 220.803C147.849 214.528 149.361 207.741 152.278 200.648C152.979 197.336 156.627 190.462 157.614 188.139C157.803 188.002 159.692 184.605 161.21 182.32C162.728 180.036 163.642 178.725 161.406 182.463C161.007 183.102 160.304 184.208 160.318 184.12L159.966 185.127C164.775 177.843 168.715 171.792 174.568 165.391C172.743 167.199 170.622 169.903 171.975 168.041C172.828 167.006 173.748 166.031 174.658 165.034C175.578 164.059 176.463 163.034 177.418 162.109C177.067 162.56 176.712 162.973 176.377 163.43C177.775 161.992 179.192 160.598 180.616 159.188C182.09 157.832 183.507 156.438 185.017 155.132C184.56 155.435 184.097 155.755 183.665 156.086C188.097 152.245 189.852 151.191 194.842 146.859C197.109 144.891 190.309 150.035 195.147 146.187C201.386 141.495 211.26 135.24 220.233 131.465C219.306 131.605 221.715 130.539 224.207 129.538L224.551 129.658C229.346 127.74 230.322 127.711 231.233 127.566C232.164 127.465 233.041 127.216 237.956 126.21L237.099 126.503C237.956 126.21 238.804 125.895 239.655 125.618C240.788 125.44 241.699 125.295 242.462 125.173C243.228 125.088 243.851 125.065 244.368 125.042C245.408 124.979 246.05 125 246.712 125.065C248.042 125.177 249.5 125.075 254.504 125.323C252.534 125.135 252.086 124.96 252.735 124.909C253.374 124.891 255.156 124.865 257.544 125.366L256.294 125.374C258.976 125.737 259.846 125.911 261.588 126.352C259.992 126.147 260.729 126.349 264.494 127.479L261.895 126.979C264.303 127.523 266.713 128.161 269.031 129.064C271.652 130.257 274.896 132.075 277.541 133.999C280.235 135.885 282.228 137.97 282.953 138.908C282.953 138.908 283.5 139.451 284.263 140.384C285.052 141.29 286.084 142.558 287.052 144.007C289.037 146.867 290.988 150.327 291.857 151.557C290.405 149.382 293.857 155.681 292.663 154.023C293.59 155.44 295.31 158.356 297.299 161.254C298.304 162.698 299.368 164.125 300.411 165.36C301.481 166.567 302.424 167.638 303.144 168.389C302.938 168.225 302.732 168.06 302.554 167.868C308.002 173.327 313.979 176.267 319.856 178.135C325.771 179.997 331.721 180.853 338.37 181.268C338.084 181.131 339.675 181.149 341.141 181.124C342.603 181.061 343.928 180.986 343.063 180.851C349.934 180.528 356.112 179.778 361.193 179.053C366.264 178.305 370.213 177.555 372.57 176.637C378.638 175.497 379.784 175.583 382.923 175.142L381.491 175.419C387.159 174.473 390.824 174.031 394.122 173.738C397.413 173.461 400.336 173.334 404.555 173.419C406.622 173.381 407.871 173.373 409.517 173.337C411.16 173.355 413.22 173.389 416.944 173.986C414.503 173.837 417.559 174.183 420.332 174.688C418.548 174.417 418.007 174.358 421.615 175.136C422.14 175.19 422.928 175.298 423.672 175.429C423.703 175.44 423.844 175.489 423.754 175.495C428.331 176.463 427.551 176.284 425.45 175.716C425.555 175.716 425.389 175.64 424.757 175.437C427.093 176.087 430.399 176.926 433.074 177.861C435.778 178.713 437.861 179.736 438.086 179.945C444.478 182.752 449.608 186.007 453.889 189.78C458.101 193.603 461.626 197.983 463.789 203.498C464.06 204.834 463.138 202.197 461.413 199.298C462.184 200.456 462.64 201.764 463.24 203.01C463.548 203.636 463.675 204.329 463.924 204.972C464.109 205.647 464.396 206.285 464.507 206.972C464.444 206.95 464.067 205.818 463.599 204.395C463.415 203.664 463.079 202.917 462.738 202.187C462.396 201.456 462.123 200.731 461.802 200.193C463.961 204.614 465.216 209.664 464.838 215.014C464.753 217.67 464.198 220.514 462.485 222.101C460.849 223.77 458.053 223.683 455.838 222.335C455.183 222.05 454.562 221.667 453.958 221.234L453.524 220.767C453.524 220.767 453.06 220.438 452.514 219.84C452.033 219.209 451.474 218.347 451.212 217.589C451.077 216.819 451.182 216.819 451.201 216.363C451.24 215.95 451.011 215 451.41 212.25C451.875 210.116 453.077 207.128 455.035 204.237C456.946 201.33 459.439 198.516 461.558 196.218C459.235 198.648 459.888 197.783 460.838 196.671C462.882 194.44 464.268 193.387 465.863 191.684L466.254 191.673C465.203 192.269 471.783 186.047 472.601 185.314C473.316 184.824 472.454 185.634 471.37 186.626C470.286 187.618 469.02 188.879 468.79 189.188C470.976 187.099 472.414 185.898 473.405 185.021C474.39 184.162 474.954 183.655 475.543 183.175C476.724 182.254 477.816 181.191 482.604 177.585C487.682 173.654 481.5 178.033 483.863 176.043C488.412 172.669 492.961 169.498 498.656 166.412L496.761 167.213C505.879 161.768 511.696 159.188 518.335 156.765C527.372 152.958 534.622 150.546 540.314 149.478C546.022 148.416 550.102 148.748 552.695 149.265C555.294 149.765 556.454 150.263 556.725 150.191C556.963 150.163 556.271 149.68 554.925 149.062C553.578 148.444 551.51 147.832 549.18 147.518C546.855 147.188 544.273 147.193 541.916 147.407C539.559 147.621 537.423 148.005 535.885 148.338C534.347 148.671 533.386 148.91 533.386 148.91C525.795 150.889 519.317 153.201 513.305 155.786C507.315 158.361 501.802 161.177 496.323 164.449C490.843 167.721 485.384 171.389 479.556 175.909C473.744 180.435 467.59 185.787 460.971 192.624L460.934 192.63Z" fill="#FFBA06"/>
</g>
<defs>
<clipPath id="clip0_319_1188">
<rect width="520" height="367" fill="white" transform="matrix(-1 0 0 -1 520 367)"/>
</clipPath>
</defs>
</svg>
