<svg width="1440" height="1074" viewBox="0 0 1440 1074" fill="none" xmlns="http://www.w3.org/2000/svg">
<g clip-path="url(#clip0_352_777)">
<path d="M1468.94 1064.71C1402.63 1062.62 1337.57 1056.21 1275.05 1043.02L1275.05 1043.02C1204.89 1028.23 1140.86 1005.48 1076.33 982.304L1071.66 980.627C1008.81 958.046 945.298 935.231 875.917 919.757L875.916 919.757C732.307 887.747 572.315 889.483 423.101 908.755L423.1 908.755C273.861 928.045 132.833 964.064 -6.3395 999.973L-6.34012 999.973C-21.2494 1003.82 -36.2541 1007.64 -51.4408 1010.84C-50.5814 853.309 -47.4069 695.778 -41.9464 538.299C11.4173 487.371 90.0332 444.873 182.974 418.263L182.975 418.262C299.478 384.898 436.805 376.945 562.386 396.362C593.442 401.164 623.794 407.544 654.389 413.974C669.707 417.194 685.086 420.427 700.645 423.48C746.959 432.571 794.183 439.914 843.547 439.77C891.991 439.636 939.655 432.139 983.668 420.674C1020.08 411.188 1055.3 398.261 1084.76 381.983C1114.07 365.78 1138.48 345.812 1152.15 321.849C1168.79 292.717 1167.42 262.728 1160.43 234.114C1156.95 219.859 1152 205.661 1147.03 191.903C1146.26 189.775 1145.5 187.66 1144.73 185.556C1140.5 173.906 1136.39 162.599 1133.04 151.374C1125.39 125.7 1124.65 97.6885 1134.97 73.4213C1145.04 49.7175 1166.17 28.3699 1204.7 16.0707L1258.23 13.1459C1258.23 13.1458 1258.23 13.1458 1258.23 13.1457C1258.23 13.1457 1258.23 13.1456 1258.23 13.1456C1346.69 8.3653 1435.91 8.1151 1524.47 12.3607C1546.11 111.002 1536.52 211.325 1526.27 312.608L1535.73 313.564L1526.27 312.609C1524.18 333.36 1522.06 354.117 1519.95 374.881C1496.6 604.334 1473.18 834.539 1468.94 1064.71Z" fill="#F43233" stroke="#FFA1B5" stroke-width="19"/>
</g>
<defs>
<clipPath id="clip0_352_777">
<rect width="1440" height="1074" fill="white"/>
</clipPath>
</defs>
</svg>
